<?xml version="1.0" encoding="UTF-8" standalone="no"?>
<!-- Created with Inkscape (http://www.inkscape.org/) -->

<svg
   xmlns:dc="http://purl.org/dc/elements/1.1/"
   xmlns:cc="http://creativecommons.org/ns#"
   xmlns:rdf="http://www.w3.org/1999/02/22-rdf-syntax-ns#"
   xmlns:svg="http://www.w3.org/2000/svg"
   xmlns="http://www.w3.org/2000/svg"
   xmlns:sodipodi="http://sodipodi.sourceforge.net/DTD/sodipodi-0.dtd"
   xmlns:inkscape="http://www.inkscape.org/namespaces/inkscape"
   width="333.3334"
   height="333.3334"
   viewBox="0 0 333.33334 333.33334"
   version="1.1"
   id="svg8"
   inkscape:version="0.92.2 5c3e80d, 2017-08-06"
   sodipodi:docname="edit.svg">
  <defs
     id="defs2" />
  <sodipodi:namedview
     id="base"
     pagecolor="#ffffff"
     bordercolor="#666666"
     borderopacity="1.0"
     inkscape:pageopacity="0.0"
     inkscape:pageshadow="2"
     inkscape:zoom="2.8"
     inkscape:cx="124.13707"
     inkscape:cy="242.22194"
     inkscape:document-units="px"
     inkscape:current-layer="layer1"
     showgrid="false"
     units="px"
     inkscape:pagecheckerboard="true"
     inkscape:lockguides="true"
     showguides="true"
     inkscape:guide-bbox="true"
     inkscape:window-width="3840"
     inkscape:window-height="2038"
     inkscape:window-x="0"
     inkscape:window-y="50"
     inkscape:window-maximized="1">
    <sodipodi:guide
       position="10.958051,77.708615"
       orientation="0,1"
       id="guide3788"
       inkscape:locked="true" />
  </sodipodi:namedview>
  <metadata
     id="metadata5">
    <rdf:RDF>
      <cc:Work
         rdf:about="">
        <dc:format>image/svg+xml</dc:format>
        <dc:type
           rdf:resource="http://purl.org/dc/dcmitype/StillImage" />
        <dc:title />
      </cc:Work>
    </rdf:RDF>
  </metadata>
  <g
     inkscape:label="Layer 1"
     inkscape:groupmode="layer"
     id="layer1"
     transform="translate(0,-208.80554)">
    <path
       id="path3703"
       style="stroke-width:1.14474225"
       d="m 276.26014,421.71778 c -0.006,-0.002 -0.0249,0.006 -0.0618,0.024 -0.34468,0.16844 -0.68652,0.34374 -1.03062,0.51511 0.15387,0.0835 0.29085,0.18888 0.3985,0.32741 0.0721,0.0927 0.13256,0.19046 0.18322,0.29247 0.24933,-0.26361 0.39149,-0.48397 0.11909,-0.52166 -0.1337,-0.0186 -0.24292,-0.0206 -0.36644,-0.0327 0.24832,-0.19854 0.79789,-0.59192 0.75808,-0.6046 z m -11.58186,14.08921 c -0.58361,0.66629 -1.15295,1.34453 -1.72686,2.01898 0.0421,0.0564 0.0999,0.12633 0.13971,0.18116 0.0177,-0.0163 0.0373,-0.0339 0.055,-0.0502 0.55223,-0.65326 1.10534,-1.30588 1.65356,-1.96223 -0.0388,-0.064 -0.0823,-0.12392 -0.12137,-0.18771 z"
       inkscape:connector-curvature="0" />
    <path
       style="stroke-width:1.14474225"
       d="M 117.60742 25.617188 L 117.60742 36.058594 L 117.60742 249.12305 L 129.33203 249.12305 L 129.33203 66.255859 L 187.63672 66.255859 L 187.63672 230.63867 L 199.36133 230.63867 L 199.36133 25.617188 L 198.45117 25.617188 L 129.33203 25.617188 L 117.60742 25.617188 z M 129.33203 249.12305 L 117.60742 249.25195 L 161.98047 324.38477 L 161.98047 324.38672 L 161.98242 324.38867 L 207.39258 245.58203 L 201.26367 245.60938 L 201.26367 245.4668 L 142.18555 245.4668 L 142.18555 255.625 L 190.92773 255.625 L 161.90039 304.75391 L 129.33203 249.12305 z M 129.33203 36.058594 L 187.63672 36.058594 L 187.63672 56.660156 L 129.33203 56.660156 L 129.33203 36.058594 z "
       transform="translate(0,208.80554)"
       id="rect3769" />
  </g>
</svg>
