<?xml version="1.0" encoding="UTF-8" standalone="no"?>
<!-- Created with Inkscape (http://www.inkscape.org/) -->

<svg
   xmlns:dc="http://purl.org/dc/elements/1.1/"
   xmlns:cc="http://creativecommons.org/ns#"
   xmlns:rdf="http://www.w3.org/1999/02/22-rdf-syntax-ns#"
   xmlns:svg="http://www.w3.org/2000/svg"
   xmlns="http://www.w3.org/2000/svg"
   xmlns:sodipodi="http://sodipodi.sourceforge.net/DTD/sodipodi-0.dtd"
   xmlns:inkscape="http://www.inkscape.org/namespaces/inkscape"
   width="333.3334"
   height="333.3334"
   viewBox="0 0 333.3334 333.3334"
   version="1.1"
   id="svg3650"
   sodipodi:docname="instagram.svg"
   inkscape:version="0.92.2 2405546, 2018-03-11">
  <defs
     id="defs3644" />
  <sodipodi:namedview
     id="base"
     pagecolor="#ffffff"
     bordercolor="#666666"
     borderopacity="1.0"
     inkscape:pageopacity="0.0"
     inkscape:pageshadow="2"
     inkscape:zoom="3.959798"
     inkscape:cx="279.36522"
     inkscape:cy="112.27554"
     inkscape:document-units="px"
     inkscape:current-layer="layer1"
     showgrid="false"
     units="px"
     inkscape:pagecheckerboard="true"
     showguides="true"
     inkscape:guide-bbox="true"
     inkscape:measure-start="0,0"
     inkscape:measure-end="0,0"
     inkscape:window-width="3840"
     inkscape:window-height="2038"
     inkscape:window-x="0"
     inkscape:window-y="50"
     inkscape:window-maximized="1">
    <sodipodi:guide
       position="166.5,166.5"
       orientation="1,0"
       id="guide4195"
       inkscape:locked="false"
       inkscape:label=""
       inkscape:color="rgb(0,0,255)" />
    <sodipodi:guide
       position="166.5,166.5"
       orientation="0,1"
       id="guide4197"
       inkscape:locked="false"
       inkscape:label=""
       inkscape:color="rgb(0,0,255)" />
  </sodipodi:namedview>
  <metadata
     id="metadata3647">
    <rdf:RDF>
      <cc:Work
         rdf:about="">
        <dc:format>image/svg+xml</dc:format>
        <dc:type
           rdf:resource="http://purl.org/dc/dcmitype/StillImage" />
        <dc:title></dc:title>
      </cc:Work>
    </rdf:RDF>
  </metadata>
  <g
     inkscape:label="Layer 1"
     inkscape:groupmode="layer"
     id="layer1"
     transform="translate(0,-208.80554)">
    <path
       id="path4243"
       style="color:#000000;font-style:normal;font-variant:normal;font-weight:normal;font-stretch:normal;font-size:medium;line-height:normal;font-family:sans-serif;font-variant-ligatures:normal;font-variant-position:normal;font-variant-caps:normal;font-variant-numeric:normal;font-variant-alternates:normal;font-feature-settings:normal;text-indent:0;text-align:start;text-decoration:none;text-decoration-line:none;text-decoration-style:solid;text-decoration-color:#000000;letter-spacing:normal;word-spacing:normal;text-transform:none;writing-mode:lr-tb;direction:ltr;text-orientation:mixed;dominant-baseline:auto;baseline-shift:baseline;text-anchor:start;white-space:normal;shape-padding:0;clip-rule:nonzero;display:inline;overflow:visible;visibility:visible;opacity:1;isolation:auto;mix-blend-mode:normal;color-interpolation:sRGB;color-interpolation-filters:linearRGB;solid-color:#000000;solid-opacity:1;vector-effect:none;fill:#000000;fill-opacity:1;fill-rule:nonzero;stroke:none;stroke-width:9.74100018;stroke-linecap:round;stroke-linejoin:round;stroke-miterlimit:4;stroke-dasharray:none;stroke-dashoffset:0;stroke-opacity:1;paint-order:normal;color-rendering:auto;image-rendering:auto;shape-rendering:auto;text-rendering:auto;enable-background:accumulate"
       d="m 234.35419,290.064 c -6.77649,0.0458 -12.58497,5.46723 -12.55078,12.30078 0.0342,6.83356 5.89134,12.19691 12.66797,12.18164 6.44658,-0.0145 11.97645,-4.9131 12.50586,-11.27148 0.0632,-0.30726 0.0965,-0.61991 0.0996,-0.93359 4e-5,-0.0121 0.004,-0.0231 0.004,-0.0352 -5e-4,-0.0234 -0.001,-0.0469 -0.002,-0.0703 8e-5,-0.0163 8e-5,-0.0325 0,-0.0488 -1e-4,-0.0101 -0.004,-0.0192 -0.004,-0.0293 -0.005,-0.31988 -0.0418,-0.63847 -0.10938,-0.95117 -0.59884,-6.34666 -6.16913,-11.18611 -12.61133,-11.14258 z m -66.40692,34.93209 c -28.7878,0 -52.23243,23.44463 -52.23243,52.23243 0,28.78779 23.44463,52.23242 52.23243,52.23242 28.78779,0 52.23046,-23.44463 52.23046,-52.23242 0,-28.7878 -23.44267,-52.23243 -52.23046,-52.23243 z m 0,10 c 23.38339,0 42.23046,18.84903 42.23046,42.23243 0,23.38339 -18.84707,42.23242 -42.23046,42.23242 -23.3834,0 -42.23243,-18.84903 -42.23243,-42.23242 0,-23.3834 18.84903,-42.23243 42.23243,-42.23243 z M 91.855469,261.36523 c -20.113134,0 -36.460938,16.34781 -36.460938,36.46094 v 155.77539 c 0,20.11314 16.347804,36.46094 36.460938,36.46094 H 242.83398 c 20.11314,0 36.46094,-16.3478 36.46094,-36.46094 V 297.82617 c 0,-20.11313 -16.3478,-36.46094 -36.46094,-36.46094 z m 0,10 H 242.83398 c 14.74611,0 26.46094,11.71484 26.46094,26.46094 v 155.77539 c 0,14.74611 -11.71483,26.46094 -26.46094,26.46094 H 91.855469 c -14.746107,0 -26.460938,-11.71483 -26.460938,-26.46094 V 297.82617 c 0,-14.7461 11.714831,-26.46094 26.460938,-26.46094 z" />
  </g>
</svg>
