<?xml version="1.0" encoding="UTF-8" standalone="no"?>
<!-- Created with Inkscape (http://www.inkscape.org/) -->

<svg
   xmlns:dc="http://purl.org/dc/elements/1.1/"
   xmlns:cc="http://creativecommons.org/ns#"
   xmlns:rdf="http://www.w3.org/1999/02/22-rdf-syntax-ns#"
   xmlns:svg="http://www.w3.org/2000/svg"
   xmlns="http://www.w3.org/2000/svg"
   xmlns:sodipodi="http://sodipodi.sourceforge.net/DTD/sodipodi-0.dtd"
   xmlns:inkscape="http://www.inkscape.org/namespaces/inkscape"
   version="1.1"
   id="svg1128"
   width="333.3334"
   height="333.3334"
   viewBox="0 0 333.3334 333.3334"
   sodipodi:docname="twitter.svg"
   inkscape:version="0.92.2 2405546, 2018-03-11">
  <metadata
     id="metadata1134">
    <rdf:RDF>
      <cc:Work
         rdf:about="">
        <dc:format>image/svg+xml</dc:format>
        <dc:type
           rdf:resource="http://purl.org/dc/dcmitype/StillImage" />
        <dc:title></dc:title>
      </cc:Work>
    </rdf:RDF>
  </metadata>
  <defs
     id="defs1132" />
  <sodipodi:namedview
     pagecolor="#ffffff"
     bordercolor="#666666"
     borderopacity="1"
     objecttolerance="10"
     gridtolerance="10"
     guidetolerance="10"
     inkscape:pageopacity="0"
     inkscape:pageshadow="2"
     inkscape:window-width="3840"
     inkscape:window-height="2038"
     id="namedview1130"
     showgrid="false"
     inkscape:pagecheckerboard="true"
     showguides="true"
     inkscape:guide-bbox="true"
     inkscape:zoom="6.2218312"
     inkscape:cx="143.76467"
     inkscape:cy="155.2215"
     inkscape:window-x="0"
     inkscape:window-y="50"
     inkscape:window-maximized="1"
     inkscape:current-layer="g1681">
    <sodipodi:guide
       position="166.5,166.5"
       orientation="0,1"
       id="guide1697"
       inkscape:locked="false"
       inkscape:label=""
       inkscape:color="rgb(0,0,255)" />
    <sodipodi:guide
       position="166.94237,183.78304"
       orientation="1,0"
       id="guide1699"
       inkscape:locked="false" />
  </sodipodi:namedview>
  <g
     id="g1681"
     transform="translate(27.091525,48.994416)">
    <path
       style="fill:#333333;fill-opacity:1;stroke-width:0.31999999"
       d="m 81.504893,225.87637 c -0.08286,-0.0829 -1.946391,-0.30657 -4.141194,-0.49715 -5.495094,-0.47714 -19.186351,-2.44174 -23.822584,-3.41837 -6.115504,-1.28825 -17.883513,-5.04403 -26.651972,-8.50604 -7.84523,-3.09749 -22.6820987,-10.59086 -25.99527223,-13.12893 l -0.7947591,-0.60883 0.95475913,0.25671 c 0.5251175,0.14118 5.9227585,0.26008 11.9947592,0.26421 11.584003,0.008 14.212531,-0.20137 22.140472,-1.7625 11.967776,-2.35665 21.990809,-5.78269 33.379526,-11.40969 3.848524,-1.9015 17.119999,-10.54282 17.119999,-11.14717 0,-0.25205 -1.172525,-0.44683 -3.564185,-0.59209 -9.902512,-0.60144 -21.474121,-5.19822 -30.927532,-12.28587 -2.644035,-1.98235 -7.916915,-7.49045 -10.502288,-10.97078 -2.777645,-3.73916 -5.97912,-9.67521 -8.15824,-15.1267 l -0.617023,-1.54361 1.844636,0.26361 c 1.014547,0.14498 5.300634,0.26354 9.524633,0.26345 6.116714,-1.2e-4 8.314947,-0.12011 10.799319,-0.58945 1.715625,-0.32412 3.186953,-0.69874 3.269615,-0.83249 0.08267,-0.13376 -1.015507,-0.56268 -2.44038,-0.95318 -3.267872,-0.89557 -11.489155,-4.37173 -14.795286,-6.25581 -6.747523,-3.84525 -14.175502,-10.97571 -18.843653,-18.08891 -2.285608,-3.48275 -5.15771,-9.556453 -6.593517,-13.943453 -1.754294,-5.36012 -2.217464,-7.87603 -3.073616,-16.69567 l -0.194061,-1.99911 2.49579,1.16788 c 6.144066,2.87506 18.077751,6.03081 21.957009,5.80634 l 1.658781,-0.096 -1.92,-1.27796 c -3.844661,-2.559 -10.557276,-9.6829 -13.908553,-14.76072 -1.785927,-2.70601 -3.716502,-6.58464 -5.426354,-10.90182 -5.086065,-12.84172 -5.399831,-27.38648 -0.861594,-39.9395 1.323968,-3.66217 4.312051,-10.2524299 4.570363,-10.0799999 0.131831,0.088 1.52705,1.6 3.100488,3.36 4.523115,5.0594199 15.358526,15.6954199 19.594933,19.2342999 9.030108,7.54331 22.8431,16.32832 34.050715,21.65612 6.674944,3.17309 17.84771,7.52872 25.495763,9.93935 6.64058,2.09309 25.14844,5.33738 34.94535,6.12566 l 2.68111,0.21572 -0.17692,-0.74557 c -0.89582,-3.77531 -1.31767,-12.33763 -0.86443,-17.54558 0.76929,-8.83967 3.88542,-18.61549 8.04824,-25.24865 4.19842,-6.68989 10.50659,-13.31537 16.51154,-17.3420799 6.47839,-4.34418 15.41782,-8.1911 21.83934,-9.39814 1.496,-0.28121 3.24071,-0.65074 3.87713,-0.8212 0.63642,-0.17046 3.80442,-0.30995 7.04,-0.30997 5.3309,-5e-5 6.33139,0.0928 10.66314,0.98912 2.62914,0.54404 6.08514,1.41438 7.67999,1.93409 6.32638,2.06154005 15.056,7.01772 20.35461,11.5561699 3.11819,2.67085 3.55014,2.88201 5.87883,2.87381 5.17297,-0.0182 22.17723,-6.0804599 32.09175,-11.4411499 1.46,-0.78940995 2.65455,-1.31308995 2.65455,-1.16373995 0,0.75842995 -1.42469,4.22601995 -3.00823,7.32181995 -2.0846,4.0753699 -4.75334,8.1821299 -7.66283,11.7918499 -2.48658,3.08504 -8.64135,8.80124 -11.36867,10.55858 -3.13319,2.01887 -2.74573,2.13842 2.99973,0.92563 7.4124,-1.56467 11.90519,-2.78368 19.2,-5.20948 9.04298,-3.00713 8.499,-2.87855 7.48619,-1.76961 -0.4586,0.50213 -2.14809,2.66775 -3.75442,4.8125 -4.3119,5.75721 -9.89375,11.58261 -17.17177,17.92102 -4.04837,3.52572 -4.97827,4.55789 -6.04342,6.70809 -1.04266,2.10478 -1.08666,2.42675 -1.48036,10.83134 -0.77771,16.60253 -2.88727,28.92055 -7.66735,44.770583 -10.38705,34.44197 -31.38075,64.61804 -59.60104,85.66975 -7.84556,5.85261 -16.15036,10.7925 -26.32783,15.66041 -9.59797,4.59074 -23.41602,9.21864 -34.71999,11.62832 -9.77902,2.0846 -25.73227,3.80991 -36.496547,3.94702 -4.497101,0.0573 -8.244336,0.0364 -8.32719,-0.0465 z m 21.303737,-10.38559 c 17.82873,-1.99192 24.22663,-3.24714 36.16,-7.09433 10.30322,-3.32165 18.07446,-6.71667 28.15999,-12.30224 19.05309,-10.55197 38.59208,-29.09606 51.08882,-48.48744 10.31938,-16.01273 16.8246,-30.97918 21.83699,-50.239993 3.014,-11.58174 4.66243,-23.35766 5.1738,-36.96 0.11248,-2.992 0.40821,-6.3581 0.65717,-7.48021 0.65721,-2.96217 2.50347,-5.77955 4.85287,-8.27003 l 12.86451,-8.9413 -14.03436,3.13173 c -4.35816,-0.20888 -5.96204,-0.2081 -7.47351,-4.13371 0,-2.94214 -0.22622,-3.76821 0.63817,-5.3286 0.89574,-1.61692 1.7627,-2.57599 3.50494,-3.77258 l 11.23834,-10.29836 -11.77694,5.49123 c -0.616,0.12511 -2.40643,1.52183 -5.13887,1.52183 -4.9401,0 -4.97975,-0.006 -7.04158,-1.02145 -1.14043,-0.56179 -3.0808,-1.89464 -4.31193,-2.96189 -5.12917,-4.44638 -11.49492,-8.22393 -17.27842,-10.2533099 -10.56591,-3.7075 -20.44857,-3.75927 -30.45115,-0.15952 -15.89119,5.7189399 -26.89847,17.2106099 -31.26995,32.6459999 -2.04624,7.22513 -2.52737,14.90649 -1.35104,21.56998 l 2.48091,17.42391 -16.54496,-3.2991 c -10.94731,-0.78265 -28.54664,-3.99921 -37.263803,-6.81056 -10.774973,-3.47502 -19.759401,-7.17561 -29.279999,-12.06014 -16.421709,-8.42513 -28.865126,-17.19321 -40.874667,-28.80178 -2.217586,-2.14355 -4.100476,-3.78368 -4.184201,-3.64475 -0.316455,0.52514 -1.164385,5.47396 -1.35917,7.93261 -0.332248,4.19374 0.656186,11.17084 2.312029,16.32 1.346276,4.1865 3.898562,9.88299 5.493838,12.26179 0.820695,1.22378 2.887449,3.8617 4.592786,5.86205 2.791735,3.27467 4.193651,4.54386 8.866656,8.02716 0.786912,0.58658 3.398131,3.16236 5.679058,5.09571 l 13.073468,8.78737 -14.024025,3.2679 c -2.850871,0.37117 -3.697052,0.48366 -5.684137,0.49751 -1.806591,0.0676 -2.351993,0.0406 -5.891634,0.14425 -3.209418,0.094 -4.515194,-0.0271 -7.951667,-0.7373 -2.261417,-0.46738 -4.192519,-0.76892 -4.291338,-0.6701 -0.268633,0.26863 1.39781,4.40383 3.217366,7.98374 3.933221,7.738473 11.884403,15.922843 19.105638,19.665973 3.508826,1.81879 14.073327,7.78227 17.248946,8.93324 l 18.36094,6.65476 -12.869455,5.57209 c -7.549763,2.94802 -8.314846,3.15357 -16.899311,4.78628 -1.803382,0.13126 -3.371725,0.33151 -3.485206,0.44499 -0.269974,0.26998 1.619248,2.57469 5.00152,6.10149 5.615638,5.85559 15.815433,11.30009 24.669724,13.16833 1.305062,0.27536 3.978233,0.62114 5.940377,0.76839 5.335462,0.4004 7.058803,1.15823 12.648514,2.09142 l 12.206243,2.53347 -12.389813,9.11879 c -3.36335,2.84094 -5.090823,4.63666 -12.345824,9.46411 -12.231769,8.13896 -24.506466,13.51918 -39.297391,17.22476 l -5.530732,1.38562 6.170732,1.99328 c 6.533837,2.11057 10.817715,3.11195 17.850736,4.17271 4.79111,0.72262 13.095247,1.80446 17.279999,2.25119 4.366541,0.46613 15.17561,0.18655 21.920003,-0.56697 z"
       id="path1683"
       inkscape:connector-curvature="0"
       sodipodi:nodetypes="cccscccccssssscccccccsssscsccccsscssscccccsscscccccssscccsccscssssscccsssssssccccccccscccsscccssscssscccccccccscsccccscscccsscsscs" />
  </g>
</svg>
